<?xml version="1.0" encoding="UTF-8" standalone="no"?>
<!-- Created with Inkscape (http://www.inkscape.org/) -->

<svg
   xmlns:dc="http://purl.org/dc/elements/1.1/"
   xmlns:cc="http://creativecommons.org/ns#"
   xmlns:rdf="http://www.w3.org/1999/02/22-rdf-syntax-ns#"
   xmlns:svg="http://www.w3.org/2000/svg"
   xmlns="http://www.w3.org/2000/svg"
   xmlns:sodipodi="http://sodipodi.sourceforge.net/DTD/sodipodi-0.dtd"
   xmlns:inkscape="http://www.inkscape.org/namespaces/inkscape"
   width="106.89378mm"
   height="40.043797mm"
   viewBox="0 0 378.75747 141.88747"
   id="svg2"
   version="1.1"
   inkscape:version="0.91 r13725"
   sodipodi:docname="enable-ads-plz.svg">
  <defs
     id="defs4" />
  <sodipodi:namedview
     id="base"
     pagecolor="#ffffff"
     bordercolor="#666666"
     borderopacity="1.0"
     inkscape:pageopacity="0.0"
     inkscape:pageshadow="2"
     inkscape:zoom="0.85278846"
     inkscape:cx="-226.99472"
     inkscape:cy="-257.38221"
     inkscape:document-units="px"
     inkscape:current-layer="layer1"
     showgrid="false"
     fit-margin-top="0"
     fit-margin-left="0"
     fit-margin-right="0"
     fit-margin-bottom="0"
     inkscape:window-width="2560"
     inkscape:window-height="1479"
     inkscape:window-x="0"
     inkscape:window-y="24"
     inkscape:window-maximized="1" />
  <metadata
     id="metadata7">
    <rdf:RDF>
      <cc:Work
         rdf:about="">
        <dc:format>image/svg+xml</dc:format>
        <dc:type
           rdf:resource="http://purl.org/dc/dcmitype/StillImage" />
        <dc:title></dc:title>
      </cc:Work>
    </rdf:RDF>
  </metadata>
  <g
     inkscape:label="Layer 1"
     inkscape:groupmode="layer"
     id="layer1"
     transform="translate(-390.24045,-213.3611)">
    <rect
       style="fill:#ffffff;fill-opacity:1;stroke:none;stroke-width:2.66000009;stroke-miterlimit:4;stroke-dasharray:none;stroke-opacity:1"
       id="rect4239"
       width="378.75748"
       height="141.88747"
       x="390.24045"
       y="213.3611" />
    <g
       transform="translate(72.702672,-57.458564)"
       style="font-style:normal;font-weight:normal;font-size:40px;line-height:125%;font-family:sans-serif;letter-spacing:0px;word-spacing:0px;fill:#838383;fill-opacity:1;stroke:none;stroke-width:1px;stroke-linecap:butt;stroke-linejoin:miter;stroke-opacity:1"
       id="flowRoot4144">
      <path
         d="m 356.97977,323.08204 q 0.2,0 0.2,0.32 0,0.72 -1.08,2.32 -1.04,1.6 -2.24,2.64 -4.2,3.72 -8.4,3.72 -1.6,0 -3.2,-0.72 -1.56,-0.76 -2.92,-2.12 -1.36,-1.36 -2.2,-3.64 -0.84,-2.28 -0.84,-5.08 0,-1.72 0.4,-2.92 0.8,-2.44 3.4,-5.16 2.64,-2.72 4.96,-2.72 0.64,0 1.92,0.12 1.92,0.16 2.68,0.4 0.8,0.24 1.8,1 1.28,0.96 2.2,2.48 0.96,1.48 0.96,2.48 0,1.28 -1,1.96 -1,0.64 -3.88,1.28 -3.72,0.84 -7.36,1.04 l -3.72,0.2 0,1.6 q 0,2.96 2.76,5.6 2.08,2 4.32,2 1.72,0 3.64,-1.04 1.96,-1.08 3.32,-2.36 1.36,-1.28 2.6,-2.32 1.24,-1.08 1.68,-1.08 z m -6.44,-9.76 q -1.24,-1.12 -1.88,-1.4 -0.6,-0.32 -1.6,-0.32 -2,0 -3,0.4 -0.96,0.36 -1.96,1.52 -3.04,3.48 -3.04,4.64 0,0.52 0.96,0.52 3.64,0 10.32,-1.52 2,-0.48 2,-1.68 0,-0.56 -1.8,-2.16 z"
         style="font-style:normal;font-variant:normal;font-weight:normal;font-stretch:normal;font-size:40px;line-height:125%;font-family:Purisa;-inkscape-font-specification:'Purisa, Normal';text-align:end;writing-mode:lr-tb;text-anchor:end;fill:#838383;fill-opacity:1"
         id="path4155"
         inkscape:connector-curvature="0" />
      <path
         d="m 363.98727,310.04204 q 0,-1.36 0.8,-1.36 0.52,0 0.76,1.2 0.24,1.16 0.88,6.96 0.72,6.28 0.84,6.56 0.16,-0.16 1.16,-3.24 0.92,-2.88 1.44,-4 0.56,-1.16 1.92,-3.08 2.92,-4.04 4.52,-4.04 1.04,0 1.96,1.4 1.24,1.84 1.52,3.64 0.28,1.8 0.4,8.52 0.08,4.32 0.08,5.12 0,2 -0.16,2.92 -0.12,0.88 -0.4,1.08 -0.24,0.24 -0.88,0.28 -0.36,0 -0.48,-0.32 -0.12,-0.28 -0.12,-1.36 0,-0.6 0.08,-2.56 0.08,-2 0.08,-3.36 0,-3.4 -0.28,-6.64 -0.24,-3.28 -0.6,-4.2 -0.2,-0.52 -0.64,-1.08 -0.44,-0.56 -0.84,-0.56 -0.84,0 -2.68,2.88 -1.84,2.84 -3.16,6 -1.24,3.04 -1.68,4.56 -0.44,1.52 -0.68,4.04 -0.44,4.08 -0.64,4.08 -0.32,0 -0.92,-0.68 -0.44,-0.44 -0.6,-1.88 -0.16,-1.48 -0.44,-5.8 -0.28,-4.36 -0.76,-8.8 -0.48,-4.6 -0.48,-6.28 z"
         style="font-style:normal;font-variant:normal;font-weight:normal;font-stretch:normal;font-size:40px;line-height:125%;font-family:Purisa;-inkscape-font-specification:'Purisa, Normal';text-align:end;writing-mode:lr-tb;text-anchor:end;fill:#838383;fill-opacity:1"
         id="path4157"
         inkscape:connector-curvature="0" />
      <path
         d="m 398.19289,311.76204 q -1.84,0 -3.92,0.76 -2.04,0.76 -3.64,1.56 -1.6,0.76 -2.32,0.76 -0.48,0 -0.48,-0.4 0,-0.56 0.24,-0.96 0.24,-0.4 0.88,-0.76 0.64,-0.36 1.2,-0.6 0.6,-0.24 1.88,-0.68 1.28,-0.48 2.2,-0.88 2.16,-0.84 3.64,-0.84 2.64,0 4.12,2.88 0.72,1.4 0.84,2.6 0.12,1.16 0.2,6.6 0.04,3.04 0.12,5.12 0.08,2.04 0.16,2.6 l 0.08,0.52 q 0,0.56 -0.52,1.2 -0.48,0.64 -0.72,0.64 -0.8,0 -1.24,-2.52 -0.44,-2.56 -0.48,-2.56 -0.12,0 -0.36,0.44 -0.8,1.32 -3.24,2.92 -2.4,1.56 -4.04,1.56 -1,0 -2.36,-0.36 -1.32,-0.4 -1.92,-0.84 -0.44,-0.36 -0.76,-1.44 -0.28,-1.08 -0.28,-2.2 0,-1.68 0.88,-2.88 0.92,-1.24 3.24,-2.52 2.52,-1.48 4.88,-1.48 0.96,0 1.6,0.32 0.64,0.32 0.96,0.68 0.32,0.32 0.52,0.32 0.2,0 0.76,0.44 0.6,0.4 0.64,0.4 0.16,0 0.16,-0.88 0,-5.36 -0.76,-7.44 -0.72,-2.08 -2.16,-2.08 z m 1.8,12.4 q 0,-0.16 -0.12,-0.36 -0.08,-0.24 -0.4,-0.52 -0.28,-0.32 -0.76,-0.56 -0.44,-0.28 -1.24,-0.44 -0.8,-0.2 -1.8,-0.2 -1.72,0 -3.04,0.6 -1.28,0.6 -1.92,1.52 -0.64,0.92 -0.96,1.72 -0.28,0.76 -0.28,1.36 0,1 0.16,1.36 0.2,0.36 0.92,0.76 0.88,0.44 1.6,0.44 1.36,0 3.36,-0.96 2.04,-1 2.04,-1.44 0,-0.32 1.2,-1.52 1.24,-1.24 1.24,-1.76 z"
         style="font-style:normal;font-variant:normal;font-weight:normal;font-stretch:normal;font-size:40px;line-height:125%;font-family:Purisa;-inkscape-font-specification:'Purisa, Normal';text-align:end;writing-mode:lr-tb;text-anchor:end;fill:#838383;fill-opacity:1"
         id="path4159"
         inkscape:connector-curvature="0" />
      <path
         d="m 424.93852,310.00204 q 0.56,0 1.28,0.36 0.76,0.32 1.6,1.04 0.84,0.68 1.4,2.12 0.56,1.4 0.56,3.28 0,2.8 -1.28,5.84 -1.24,3 -3.48,5.24 -1.68,1.68 -4.44,3.2 -2.72,1.52 -4.04,1.52 -1.32,0 -2.96,-0.92 -1.64,-0.92 -1.84,-1.72 -0.12,-0.44 -0.44,-8.08 -0.32,-7.68 -0.84,-10.88 -1.08,-6.8 -1.08,-10.88 0,-1.48 0.56,-2.04 0.6,-0.6 0.96,-0.6 0.6,0 0.8,1.48 0.24,1.48 0.48,4.88 0.24,3.4 0.64,5.96 0.52,3.36 0.72,5.52 l 0.2,2.2 3.12,-3.08 q 3.12,-3.12 5.24,-3.8 2.04,-0.64 2.84,-0.64 z m 2.52,7 q 0,-4.44 -2.64,-4.44 -0.72,0 -1.96,0.24 -0.84,0.16 -2.8,1.92 -1.96,1.72 -3.56,3.72 -1,1.28 -1.6,3.4 -0.56,2.12 -0.56,4.16 0,2.28 0.68,3.36 0.68,1.04 1.52,1.04 0.44,0 2,-0.48 1.76,-0.56 3.68,-2.24 1.96,-1.68 3.4,-3.88 1.84,-2.84 1.84,-6.8 z"
         style="font-style:normal;font-variant:normal;font-weight:normal;font-stretch:normal;font-size:40px;line-height:125%;font-family:Purisa;-inkscape-font-specification:'Purisa, Normal';text-align:end;writing-mode:lr-tb;text-anchor:end;fill:#838383;fill-opacity:1"
         id="path4161"
         inkscape:connector-curvature="0" />
      <path
         d="m 436.27039,305.36204 q -0.24,-2.56 -0.24,-5.64 0,-3.08 0.16,-4.68 0.16,-1.64 0.4,-2.08 0.24,-0.44 0.68,-0.44 0.4,0 0.64,0.36 0.24,0.4 1.44,18.52 1.24,18.12 1.24,18.84 0,0.52 -0.24,0.72 -0.24,0.16 -0.8,0.16 -0.96,0 -1.24,-1.36 -0.28,-1.4 -0.8,-8.68 -0.64,-8.8 -1.24,-15.72 z"
         style="font-style:normal;font-variant:normal;font-weight:normal;font-stretch:normal;font-size:40px;line-height:125%;font-family:Purisa;-inkscape-font-specification:'Purisa, Normal';text-align:end;writing-mode:lr-tb;text-anchor:end;fill:#838383;fill-opacity:1"
         id="path4163"
         inkscape:connector-curvature="0" />
      <path
         d="m 466.82352,323.08204 q 0.2,0 0.2,0.32 0,0.72 -1.08,2.32 -1.04,1.6 -2.24,2.64 -4.2,3.72 -8.4,3.72 -1.6,0 -3.2,-0.72 -1.56,-0.76 -2.92,-2.12 -1.36,-1.36 -2.2,-3.64 -0.84,-2.28 -0.84,-5.08 0,-1.72 0.4,-2.92 0.8,-2.44 3.4,-5.16 2.64,-2.72 4.96,-2.72 0.64,0 1.92,0.12 1.92,0.16 2.68,0.4 0.8,0.24 1.8,1 1.28,0.96 2.2,2.48 0.96,1.48 0.96,2.48 0,1.28 -1,1.96 -1,0.64 -3.88,1.28 -3.72,0.84 -7.36,1.04 l -3.72,0.2 0,1.6 q 0,2.96 2.76,5.6 2.08,2 4.32,2 1.72,0 3.64,-1.04 1.96,-1.08 3.32,-2.36 1.36,-1.28 2.6,-2.32 1.24,-1.08 1.68,-1.08 z m -6.44,-9.76 q -1.24,-1.12 -1.88,-1.4 -0.6,-0.32 -1.6,-0.32 -2,0 -3,0.4 -0.96,0.36 -1.96,1.52 -3.04,3.48 -3.04,4.64 0,0.52 0.96,0.52 3.64,0 10.32,-1.52 2,-0.48 2,-1.68 0,-0.56 -1.8,-2.16 z"
         style="font-style:normal;font-variant:normal;font-weight:normal;font-stretch:normal;font-size:40px;line-height:125%;font-family:Purisa;-inkscape-font-specification:'Purisa, Normal';text-align:end;writing-mode:lr-tb;text-anchor:end;fill:#838383;fill-opacity:1"
         id="path4165"
         inkscape:connector-curvature="0" />
      <path
         d="m 509.13039,311.76204 q -1.84,0 -3.92,0.76 -2.04,0.76 -3.64,1.56 -1.6,0.76 -2.32,0.76 -0.48,0 -0.48,-0.4 0,-0.56 0.24,-0.96 0.24,-0.4 0.88,-0.76 0.64,-0.36 1.2,-0.6 0.6,-0.24 1.88,-0.68 1.28,-0.48 2.2,-0.88 2.16,-0.84 3.64,-0.84 2.64,0 4.12,2.88 0.72,1.4 0.84,2.6 0.12,1.16 0.2,6.6 0.04,3.04 0.12,5.12 0.08,2.04 0.16,2.6 l 0.08,0.52 q 0,0.56 -0.52,1.2 -0.48,0.64 -0.72,0.64 -0.8,0 -1.24,-2.52 -0.44,-2.56 -0.48,-2.56 -0.12,0 -0.36,0.44 -0.8,1.32 -3.24,2.92 -2.4,1.56 -4.04,1.56 -1,0 -2.36,-0.36 -1.32,-0.4 -1.92,-0.84 -0.44,-0.36 -0.76,-1.44 -0.28,-1.08 -0.28,-2.2 0,-1.68 0.88,-2.88 0.92,-1.24 3.24,-2.52 2.52,-1.48 4.88,-1.48 0.96,0 1.6,0.32 0.64,0.32 0.96,0.68 0.32,0.32 0.52,0.32 0.2,0 0.76,0.44 0.6,0.4 0.64,0.4 0.16,0 0.16,-0.88 0,-5.36 -0.76,-7.44 -0.72,-2.08 -2.16,-2.08 z m 1.8,12.4 q 0,-0.16 -0.12,-0.36 -0.08,-0.24 -0.4,-0.52 -0.28,-0.32 -0.76,-0.56 -0.44,-0.28 -1.24,-0.44 -0.8,-0.2 -1.8,-0.2 -1.72,0 -3.04,0.6 -1.28,0.6 -1.92,1.52 -0.64,0.92 -0.96,1.72 -0.28,0.76 -0.28,1.36 0,1 0.16,1.36 0.2,0.36 0.92,0.76 0.88,0.44 1.6,0.44 1.36,0 3.36,-0.96 2.04,-1 2.04,-1.44 0,-0.32 1.2,-1.52 1.24,-1.24 1.24,-1.76 z"
         style="font-style:normal;font-variant:normal;font-weight:normal;font-stretch:normal;font-size:40px;line-height:125%;font-family:Purisa;-inkscape-font-specification:'Purisa, Normal';text-align:end;writing-mode:lr-tb;text-anchor:end;fill:#838383;fill-opacity:1"
         id="path4167"
         inkscape:connector-curvature="0" />
      <path
         d="m 542.55602,332.08204 q 0,0.88 -0.36,1.36 -0.32,0.52 -0.6,0.6 -0.24,0.12 -0.44,0.12 -0.52,0 -0.88,-0.36 -0.36,-0.32 -0.56,-1.2 -0.2,-0.84 -0.28,-1.28 -0.04,-0.44 -0.16,-1.64 -0.28,-4.04 -0.64,-4.04 -0.44,0 -1.4,1.16 -4.48,5.28 -9.44,5.28 -1.48,0 -2.96,-0.56 -5.12,-1.92 -5.12,-7.84 0,-2.56 0.84,-4.88 0.88,-2.36 2.2,-3.96 1.36,-1.6 2.72,-2.68 1.36,-1.08 2.6,-1.52 1.56,-0.6 2.16,-0.6 1.04,0 3.48,1.36 2.48,1.36 3.44,2.64 1.08,1.44 1.64,1.44 0.04,0 0.04,0 0,-0.04 0.04,-0.04 0.44,-0.28 0.44,-10.44 0,-10.04 0.48,-11.4 0.52,-1.24 1.56,-1.24 l 1.08,0 -0.32,16.44 q -0.12,6.12 -0.12,10.92 0,6.52 0.28,9.32 0.28,2.8 0.28,3.04 z m -9.36,-17.72 q -2.36,-1.56 -3.28,-1.56 -0.8,0 -3.6,2.72 -2.8,2.72 -3.32,4 -0.4,0.96 -0.4,3.48 0,3.08 0.52,4 0.4,0.72 1.92,1.56 1.56,0.84 3.08,0.84 2.72,0 6.88,-4 3.28,-3.16 3.28,-4.12 0,-1.32 -1.68,-3.52 -1.64,-2.2 -3.4,-3.4 z"
         style="font-style:normal;font-variant:normal;font-weight:normal;font-stretch:normal;font-size:40px;line-height:125%;font-family:Purisa;-inkscape-font-specification:'Purisa, Normal';text-align:end;writing-mode:lr-tb;text-anchor:end;fill:#838383;fill-opacity:1"
         id="path4169"
         inkscape:connector-curvature="0" />
      <path
         d="m 552.74977,322.28204 q -0.6,0 -2.56,-1.44 -1.96,-1.48 -1.96,-3 0,-1.44 2.04,-3.96 2.04,-2.56 4.92,-3.28 1.32,-0.36 3.48,-0.36 0.92,0 1.36,0.24 0.44,0.24 1.2,1.08 1.24,1.4 1.24,1.92 0,0.48 -0.52,0.48 -0.64,0 -1.08,-0.44 -0.44,-0.48 -1.08,-0.96 -0.64,-0.48 -1.72,-0.48 -1.4,0 -3,0.76 -1.6,0.76 -2.84,2.12 -1.76,1.88 -1.76,2.56 0,0.68 1.04,1.64 1.04,0.92 3.48,1.76 3.84,1.32 5.2,2.48 1.36,1.16 1.36,3.12 0,1.84 -0.64,3.36 -0.44,1.16 -1.88,2.6 -1.44,1.44 -2.84,1.44 -1.08,0 -2.8,-0.36 -1.72,-0.32 -2.6,-0.76 -0.72,-0.36 -1.32,-1.4 -0.6,-1.08 -0.6,-1.92 0,-0.44 0.2,-0.76 0.24,-0.36 0.56,-0.36 0.6,0 1.12,1.12 0.48,1 1.92,1.8 1.48,0.8 2.76,0.8 1.72,0 3.04,-2.04 1.32,-2.08 1.32,-3.24 0,-0.28 -0.16,-0.68 -0.12,-0.44 -0.68,-1.04 -0.56,-0.6 -1.44,-0.92 -0.84,-0.28 -1.96,-0.76 -1.12,-0.48 -1.88,-0.8 -0.72,-0.32 -0.92,-0.32 z"
         style="font-style:normal;font-variant:normal;font-weight:normal;font-stretch:normal;font-size:40px;line-height:125%;font-family:Purisa;-inkscape-font-specification:'Purisa, Normal';text-align:end;writing-mode:lr-tb;text-anchor:end;fill:#838383;fill-opacity:1"
         id="path4171"
         inkscape:connector-curvature="0" />
      <path
         d="m 594.57664,312.92204 q 1.12,-1 1.12,-1.72 0,-0.72 0.44,-1.72 0.48,-1.04 1.36,-1.04 0.56,0 0.96,0.64 0.44,0.6 0.92,0.6 0.36,0 2.96,-0.6 2.6,-0.64 4.56,-0.64 1.64,0 3.64,0.44 4.16,0.96 4.16,5.16 0,3.2 -2.48,8.52 -1.64,3.52 -4,5.44 -2.36,1.88 -5.04,1.88 -0.76,0 -1.16,-0.08 l -1.84,-0.28 0.44,2.16 q 1.44,6.8 1.44,8.52 0,0.8 -0.28,1.04 -0.28,0.28 -0.96,0.28 -0.72,0 -1.04,-0.36 -0.28,-0.32 -0.6,-1.4 -1.56,-5.6 -2.52,-16.72 -0.44,-5.48 -0.76,-6.68 -0.28,-1.24 -1.16,-1.24 -1.28,0 -1.28,-0.76 0,-0.44 1.12,-1.44 z m 5.96,13.28 q 0.6,0 1.4,0.52 0.8,0.48 1.36,0.48 1.6,0 3.68,-2.04 2.08,-2.08 3.52,-5 1.48,-2.92 1.48,-5.2 0,-1.24 -0.56,-2.24 -0.52,-1 -0.92,-1.12 -0.68,-0.28 -2.36,-0.28 -3.72,0 -6.6,0.92 l -2.68,0.88 0.08,2.56 q 0.08,2.56 0.44,6.52 0.2,2.36 0.44,3.16 0.24,0.8 0.72,0.84 z"
         style="font-style:normal;font-variant:normal;font-weight:normal;font-stretch:normal;font-size:40px;line-height:125%;font-family:Purisa;-inkscape-font-specification:'Purisa, Normal';text-align:end;writing-mode:lr-tb;text-anchor:end;fill:#838383;fill-opacity:1"
         id="path4173"
         inkscape:connector-curvature="0" />
      <path
         d="m 621.34852,305.36204 q -0.24,-2.56 -0.24,-5.64 0,-3.08 0.16,-4.68 0.16,-1.64 0.4,-2.08 0.24,-0.44 0.68,-0.44 0.4,0 0.64,0.36 0.24,0.4 1.44,18.52 1.24,18.12 1.24,18.84 0,0.52 -0.24,0.72 -0.24,0.16 -0.8,0.16 -0.96,0 -1.24,-1.36 -0.28,-1.4 -0.8,-8.68 -0.64,-8.8 -1.24,-15.72 z"
         style="font-style:normal;font-variant:normal;font-weight:normal;font-stretch:normal;font-size:40px;line-height:125%;font-family:Purisa;-inkscape-font-specification:'Purisa, Normal';text-align:end;writing-mode:lr-tb;text-anchor:end;fill:#838383;fill-opacity:1"
         id="path4175"
         inkscape:connector-curvature="0" />
      <path
         d="m 632.70164,315.92204 q -0.48,0 -0.96,-0.2 -0.48,-0.2 -0.48,-0.52 0,-1.12 4.12,-2.68 4.16,-1.56 6.08,-2 0.56,-0.12 1.16,-0.12 1.08,0 2.12,0.32 1.04,0.28 1.44,0.72 0.52,0.56 0.52,1.96 0,2.12 -1.16,4.64 l -0.88,1.84 1.48,0.2 q 1.8,0.12 1.8,0.56 0,0.32 -0.88,0.72 -0.88,0.4 -2.04,0.56 -1.08,0.16 -1.72,0.52 -0.6,0.36 -1.56,1.36 -1,1.04 -2.2,3.04 -1.2,1.96 -1.2,2.48 0,0.16 0.2,0.16 0.16,0 3.6,-0.64 3.44,-0.68 5.48,-0.68 2.12,0 2.12,0.72 0,0.44 -0.8,0.76 -0.8,0.28 -3.24,0.76 -7.52,1.48 -9.16,1.48 -1.32,0 -1.32,-0.72 0,-0.76 1.36,-3.36 1.36,-2.6 2.16,-3.56 1.04,-1.28 1.04,-1.52 0,-0.28 -1.64,-0.28 -2,0 -2,-0.64 0,-0.48 0.92,-0.8 0.96,-0.32 2.4,-0.32 1.44,0 1.88,-0.16 0.48,-0.16 0.96,-0.84 0.96,-1.44 1.6,-3.2 0.68,-1.8 0.68,-3.04 0,-0.68 -0.2,-0.84 -0.2,-0.16 -1,-0.16 -1.92,0.04 -5.36,1.08 -3.44,1.04 -4.2,1.84 -0.44,0.56 -1.12,0.56 z"
         style="font-style:normal;font-variant:normal;font-weight:normal;font-stretch:normal;font-size:40px;line-height:125%;font-family:Purisa;-inkscape-font-specification:'Purisa, Normal';text-align:end;writing-mode:lr-tb;text-anchor:end;fill:#838383;fill-opacity:1"
         id="path4177"
         inkscape:connector-curvature="0" />
      <path
         d="m 661.81102,330.24204 q 0,-0.96 0.24,-1.6 0.24,-0.64 0.44,-0.8 0.24,-0.16 0.4,-0.16 0.32,0 1.44,0.8 1.16,0.76 1.16,1 -0.12,0.32 -0.32,0.84 -0.16,0.48 -0.84,1.32 -0.64,0.8 -1.36,0.8 -1.16,0 -1.16,-2.2 z m -3.08,-25.96 q 0,0.72 1,2.52 1,1.8 1.64,1.8 0.84,0 1.52,-1 0.72,-1.04 0.72,-1.48 0,-0.36 -0.76,-0.36 -0.72,0 -0.72,-0.52 0,-0.52 0.56,-0.88 0.6,-0.4 1.04,-0.4 0.48,0 0.92,0.6 0.48,0.56 0.48,1.56 0,1.24 -0.76,2.48 -0.72,1.24 -2.4,1.24 -1.56,0 -3.28,-1.8 -1.68,-1.84 -1.68,-3.84 0,-2.12 2.36,-4.16 2.36,-2.04 4.52,-2.04 2.28,0 4.08,2.36 1.84,2.36 1.84,5.08 0,3.16 -4,8.32 l -1.4,1.84 0.04,3 q 0,0.2 0,0.56 0.04,0.36 0.04,0.52 0,2.76 -0.8,2.76 -0.64,0 -0.92,-0.92 -0.24,-0.96 -0.24,-3.36 0,-2.48 0.36,-3.64 0.4,-1.16 1.92,-2.56 1.44,-1.28 2.28,-3.2 0.88,-1.92 0.88,-3.76 0,-1.28 -0.4,-2.2 -0.32,-0.88 -1.56,-1.88 -1.2,-1 -2.04,-1 -1.4,0 -3.32,1.6 -1.92,1.56 -1.92,2.76 z"
         style="font-style:normal;font-variant:normal;font-weight:normal;font-stretch:normal;font-size:40px;line-height:125%;font-family:Purisa;-inkscape-font-specification:'Purisa, Normal';text-align:end;writing-mode:lr-tb;text-anchor:end;fill:#838383;fill-opacity:1"
         id="path4179"
         inkscape:connector-curvature="0" />
      <path
         d="m 439.86977,353.88204 q 0,-1.48 -0.28,-3.76 -0.28,-2.28 -0.28,-3.8 0,-0.76 0.04,-1 0.12,-0.64 0.44,-1 0.36,-0.4 0.72,-0.4 0.48,0 0.68,0.44 0.12,0.28 0.36,2.96 0.24,2.68 0.44,5.24 0.2,2.56 0.28,2.64 0.04,0.04 0.12,0.04 0.32,0 1.84,-0.32 1.56,-0.36 2.56,-0.36 2,0 2,0.88 0,0.88 -4.4,1.96 l -2,0.48 0.24,6.76 q 0.2,5.96 0.76,11.16 0.56,5.16 0.56,5.84 0,1.24 -0.92,1.24 -0.72,0 -1.2,-1.28 -0.44,-1.28 -0.44,-3.32 0,-1.48 -0.12,-3 -0.12,-1.56 -0.44,-4.8 -0.28,-3.28 -0.56,-6.72 -0.12,-1.84 -0.2,-2.84 -0.04,-1 -0.12,-1.48 -0.08,-0.48 -0.12,-0.56 -0.04,-0.12 -0.16,-0.12 -0.64,0 -3.08,0.44 -2.44,0.44 -3.04,0.44 -1.16,0 -1.16,-0.96 0,-0.68 1.44,-1.16 1.48,-0.48 3.32,-0.84 1.84,-0.4 2.28,-0.68 0.44,-0.32 0.44,-2.12 z"
         style="font-style:normal;font-variant:normal;font-weight:normal;font-stretch:normal;font-size:40px;line-height:125%;font-family:Purisa;-inkscape-font-specification:'Purisa, Normal';text-align:end;writing-mode:lr-tb;text-anchor:end;fill:#838383;fill-opacity:1"
         id="path4181"
         inkscape:connector-curvature="0" />
      <path
         d="m 455.09102,378.24204 q 0,-3.2 -0.8,-12.88 -0.76,-9.72 -0.76,-13.4 0,-2.12 0.24,-2.56 0.48,-0.84 0.92,-0.84 0.72,0 0.92,1.4 0.24,1.4 0.64,7.08 0.32,4.56 0.56,7.64 l 0.36,4.72 0.72,-1.56 q 0.8,-1.8 3.92,-4.72 3.12,-2.92 4.2,-2.92 1,0 2.2,1.12 1.2,1.12 1.56,2.4 0.32,1.08 0.32,9.72 0,6.24 -0.12,7.4 -0.12,1.12 -0.76,1.12 -0.64,0 -0.84,-1.16 -0.16,-1.16 -0.32,-6.68 -0.24,-7.72 -0.96,-9.88 l -0.64,-2 -2.32,2.16 q -1.84,1.76 -3.4,4 -1.52,2.24 -2.08,3.96 -0.36,1.24 -0.6,3.96 -0.24,2.72 -0.6,4.48 -0.32,1.76 -0.96,1.76 -0.28,0 -0.68,-0.32 -0.72,-0.6 -0.72,-4 z"
         style="font-style:normal;font-variant:normal;font-weight:normal;font-stretch:normal;font-size:40px;line-height:125%;font-family:Purisa;-inkscape-font-specification:'Purisa, Normal';text-align:end;writing-mode:lr-tb;text-anchor:end;fill:#838383;fill-opacity:1"
         id="path4183"
         inkscape:connector-curvature="0" />
      <path
         d="m 477.81539,360.04204 q 0,-1.36 0.8,-1.36 0.52,0 0.76,1.2 0.24,1.16 0.88,6.96 0.72,6.28 0.84,6.56 0.16,-0.16 1.16,-3.24 0.92,-2.88 1.44,-4 0.56,-1.16 1.92,-3.08 2.92,-4.04 4.52,-4.04 1.04,0 1.96,1.4 1.24,1.84 1.52,3.64 0.28,1.8 0.4,8.52 0.08,4.32 0.08,5.12 0,2 -0.16,2.92 -0.12,0.88 -0.4,1.08 -0.24,0.24 -0.88,0.28 -0.36,0 -0.48,-0.32 -0.12,-0.28 -0.12,-1.36 0,-0.6 0.08,-2.56 0.08,-2 0.08,-3.36 0,-3.4 -0.28,-6.64 -0.24,-3.28 -0.6,-4.2 -0.2,-0.52 -0.64,-1.08 -0.44,-0.56 -0.84,-0.56 -0.84,0 -2.68,2.88 -1.84,2.84 -3.16,6 -1.24,3.04 -1.68,4.56 -0.44,1.52 -0.68,4.04 -0.44,4.08 -0.64,4.08 -0.32,0 -0.92,-0.68 -0.44,-0.44 -0.6,-1.88 -0.16,-1.48 -0.44,-5.8 -0.28,-4.36 -0.76,-8.8 -0.48,-4.6 -0.48,-6.28 z"
         style="font-style:normal;font-variant:normal;font-weight:normal;font-stretch:normal;font-size:40px;line-height:125%;font-family:Purisa;-inkscape-font-specification:'Purisa, Normal';text-align:end;writing-mode:lr-tb;text-anchor:end;fill:#838383;fill-opacity:1"
         id="path4185"
         inkscape:connector-curvature="0" />
      <path
         d="m 500.14102,362.44204 q 0,-0.48 0.36,-1.12 0.4,-0.68 0.92,-0.68 0.68,0 1.08,1.08 0.28,0.76 3.52,4.32 3.28,3.56 3.72,3.56 0.2,0 2,-2.88 l 2.76,-4.56 q 0.88,-1.44 1.6,-1.44 0.36,0 0.72,0.44 0.4,0.44 0.4,0.8 0,0.44 -0.96,1.64 -0.96,1.2 -1.2,2 -0.16,0.68 -1.76,3.2 -1.6,2.52 -1.6,2.76 0,0.24 3.44,3.4 3.44,3.16 3.6,3.72 0.12,0.36 0.12,0.68 0,0.96 -0.88,0.96 -0.92,0 -1.88,-1.08 -1.08,-1.16 -3.4,-3.12 -2.28,-2 -2.56,-2 -0.4,0 -2.92,3.88 -1.36,2.12 -2.16,3 -0.8,0.88 -1.36,0.88 -0.28,0 -0.64,-0.28 -0.32,-0.28 -0.32,-0.56 0,-0.76 2.56,-4.64 l 2.88,-4.36 -1.76,-1.88 q -0.12,-0.16 -2.24,-2.24 -2.08,-2.08 -3.08,-3.36 -0.96,-1.32 -0.96,-2.12 z"
         style="font-style:normal;font-variant:normal;font-weight:normal;font-stretch:normal;font-size:40px;line-height:125%;font-family:Purisa;-inkscape-font-specification:'Purisa, Normal';text-align:end;writing-mode:lr-tb;text-anchor:end;fill:#838383;fill-opacity:1"
         id="path4187"
         inkscape:connector-curvature="0" />
      <path
         d="m 529.50039,379.88204 q 1.72,-3.44 2.56,-4.72 0.88,-1.32 1.44,-1.32 1.28,0 1.28,1.12 0,1.52 -2.56,6.4 -2.48,4.64 -3.2,5.68 -0.68,1.04 -1.32,1.04 -0.92,0 -0.92,-1.04 0,-1.72 2.72,-7.16 z"
         style="font-style:normal;font-variant:normal;font-weight:normal;font-stretch:normal;font-size:40px;line-height:125%;font-family:Purisa;-inkscape-font-specification:'Purisa, Normal';text-align:end;writing-mode:lr-tb;text-anchor:end;fill:#838383;fill-opacity:1"
         id="path4189"
         inkscape:connector-curvature="0" />
      <path
         d="m 573.84352,372.28204 q -0.6,0 -2.56,-1.44 -1.96,-1.48 -1.96,-3 0,-1.44 2.04,-3.96 2.04,-2.56 4.92,-3.28 1.32,-0.36 3.48,-0.36 0.92,0 1.36,0.24 0.44,0.24 1.2,1.08 1.24,1.4 1.24,1.92 0,0.48 -0.52,0.48 -0.64,0 -1.08,-0.44 -0.44,-0.48 -1.08,-0.96 -0.64,-0.48 -1.72,-0.48 -1.4,0 -3,0.76 -1.6,0.76 -2.84,2.12 -1.76,1.88 -1.76,2.56 0,0.68 1.04,1.64 1.04,0.92 3.48,1.76 3.84,1.32 5.2,2.48 1.36,1.16 1.36,3.12 0,1.84 -0.64,3.36 -0.44,1.16 -1.88,2.6 -1.44,1.44 -2.84,1.44 -1.08,0 -2.8,-0.36 -1.72,-0.32 -2.6,-0.76 -0.72,-0.36 -1.32,-1.4 -0.6,-1.08 -0.6,-1.92 0,-0.44 0.2,-0.76 0.24,-0.36 0.56,-0.36 0.6,0 1.12,1.12 0.48,1 1.92,1.8 1.48,0.8 2.76,0.8 1.72,0 3.04,-2.04 1.32,-2.08 1.32,-3.24 0,-0.28 -0.16,-0.68 -0.12,-0.44 -0.68,-1.04 -0.56,-0.6 -1.44,-0.92 -0.84,-0.28 -1.96,-0.76 -1.12,-0.48 -1.88,-0.8 -0.72,-0.32 -0.92,-0.32 z"
         style="font-style:normal;font-variant:normal;font-weight:normal;font-stretch:normal;font-size:40px;line-height:125%;font-family:Purisa;-inkscape-font-specification:'Purisa, Normal';text-align:end;writing-mode:lr-tb;text-anchor:end;fill:#838383;fill-opacity:1"
         id="path4191"
         inkscape:connector-curvature="0" />
      <path
         d="m 606.49102,365.60204 q 0,0.68 -0.32,1.12 -0.28,0.44 -0.68,0.44 -0.76,0 -0.96,-1.16 -0.08,-0.92 -1.32,-2.32 -0.52,-0.56 -0.84,-0.8 -0.32,-0.24 -1.52,-0.52 -1.16,-0.28 -3.08,-0.28 -1.56,0 -2.4,0.56 -0.8,0.56 -2,2.28 -2.88,4.08 -2.88,7.36 0,1.68 0.36,2.84 0.36,1.12 0.68,1.52 0.36,0.36 1.16,1.16 1.16,1.12 1.76,1.44 0.64,0.28 1.76,0.28 3.48,0 7.6,-4.72 2.16,-2.4 3.12,-2.4 0.52,0 0.52,0.76 0,0.72 -1.92,3.08 -1.88,2.36 -3.24,3.32 -3.16,2.28 -5.64,2.28 -1.8,0 -3.96,-1.08 -2.2,-1.08 -3.2,-2.92 -0.96,-1.84 -1.16,-5.36 -0.12,-1.36 -0.12,-2.16 0,-1.56 1.08,-3.56 1.12,-2.16 3.24,-4.16 2.16,-2 3.72,-2.44 1.2,-0.28 2.6,-0.28 3.04,0 5.32,1.96 2.32,1.92 2.32,3.76 z"
         style="font-style:normal;font-variant:normal;font-weight:normal;font-stretch:normal;font-size:40px;line-height:125%;font-family:Purisa;-inkscape-font-specification:'Purisa, Normal';text-align:end;writing-mode:lr-tb;text-anchor:end;fill:#838383;fill-opacity:1"
         id="path4193"
         inkscape:connector-curvature="0" />
      <path
         d="m 615.14539,363.72204 q 3.12,-2.92 5.24,-3.84 2.16,-0.96 5.44,-0.96 4.96,0 6.2,2.96 0.76,1.76 0.76,4.32 0,4.24 -1.88,8.6 -1.88,4.32 -4.64,6 -2.68,1.64 -5.64,1.64 -4.12,0 -6.6,-2.84 -1.72,-2 -2.24,-3.36 -0.52,-1.4 -0.52,-3.96 0,-4.84 3.88,-8.56 z m 6.44,16.44 q 3.36,0 6.08,-4.6 2.76,-4.64 2.76,-10.48 0,-0.88 -0.2,-1.32 -0.2,-0.44 -0.72,-0.88 -1.48,-1.24 -3.16,-1.24 -0.28,0 -0.64,0.08 -0.32,0.04 -1.08,0.16 -0.76,0.08 -1.8,0.2 -1.4,0.2 -2.24,0.64 -0.8,0.4 -2.04,1.56 -2.36,2.24 -3.36,4.16 -1,1.88 -1,4.12 0,3.32 2.04,5.44 2.08,2.12 5.36,2.16 z"
         style="font-style:normal;font-variant:normal;font-weight:normal;font-stretch:normal;font-size:40px;line-height:125%;font-family:Purisa;-inkscape-font-specification:'Purisa, Normal';text-align:end;writing-mode:lr-tb;text-anchor:end;fill:#838383;fill-opacity:1"
         id="path4195"
         inkscape:connector-curvature="0" />
      <path
         d="m 644.40102,353.88204 q 0,-1.48 -0.28,-3.76 -0.28,-2.28 -0.28,-3.8 0,-0.76 0.04,-1 0.12,-0.64 0.44,-1 0.36,-0.4 0.72,-0.4 0.48,0 0.68,0.44 0.12,0.28 0.36,2.96 0.24,2.68 0.44,5.24 0.2,2.56 0.28,2.64 0.04,0.04 0.12,0.04 0.32,0 1.84,-0.32 1.56,-0.36 2.56,-0.36 2,0 2,0.88 0,0.88 -4.4,1.96 l -2,0.48 0.24,6.76 q 0.2,5.96 0.76,11.16 0.56,5.16 0.56,5.84 0,1.24 -0.92,1.24 -0.72,0 -1.2,-1.28 -0.44,-1.28 -0.44,-3.32 0,-1.48 -0.12,-3 -0.12,-1.56 -0.44,-4.8 -0.28,-3.28 -0.56,-6.72 -0.12,-1.84 -0.2,-2.84 -0.04,-1 -0.12,-1.48 -0.08,-0.48 -0.12,-0.56 -0.04,-0.12 -0.16,-0.12 -0.64,0 -3.08,0.44 -2.44,0.44 -3.04,0.44 -1.16,0 -1.16,-0.96 0,-0.68 1.44,-1.16 1.48,-0.48 3.32,-0.84 1.84,-0.4 2.28,-0.68 0.44,-0.32 0.44,-2.12 z"
         style="font-style:normal;font-variant:normal;font-weight:normal;font-stretch:normal;font-size:40px;line-height:125%;font-family:Purisa;-inkscape-font-specification:'Purisa, Normal';text-align:end;writing-mode:lr-tb;text-anchor:end;fill:#838383;fill-opacity:1"
         id="path4197"
         inkscape:connector-curvature="0" />
      <path
         d="m 665.18227,353.88204 q 0,-1.48 -0.28,-3.76 -0.28,-2.28 -0.28,-3.8 0,-0.76 0.04,-1 0.12,-0.64 0.44,-1 0.36,-0.4 0.72,-0.4 0.48,0 0.68,0.44 0.12,0.28 0.36,2.96 0.24,2.68 0.44,5.24 0.2,2.56 0.28,2.64 0.04,0.04 0.12,0.04 0.32,0 1.84,-0.32 1.56,-0.36 2.56,-0.36 2,0 2,0.88 0,0.88 -4.4,1.96 l -2,0.48 0.24,6.76 q 0.2,5.96 0.76,11.16 0.56,5.16 0.56,5.84 0,1.24 -0.92,1.24 -0.72,0 -1.2,-1.28 -0.44,-1.28 -0.44,-3.32 0,-1.48 -0.12,-3 -0.12,-1.56 -0.44,-4.8 -0.28,-3.28 -0.56,-6.72 -0.12,-1.84 -0.2,-2.84 -0.04,-1 -0.12,-1.48 -0.08,-0.48 -0.12,-0.56 -0.04,-0.12 -0.16,-0.12 -0.64,0 -3.08,0.44 -2.44,0.44 -3.04,0.44 -1.16,0 -1.16,-0.96 0,-0.68 1.44,-1.16 1.48,-0.48 3.32,-0.84 1.84,-0.4 2.28,-0.68 0.44,-0.32 0.44,-2.12 z"
         style="font-style:normal;font-variant:normal;font-weight:normal;font-stretch:normal;font-size:40px;line-height:125%;font-family:Purisa;-inkscape-font-specification:'Purisa, Normal';text-align:end;writing-mode:lr-tb;text-anchor:end;fill:#838383;fill-opacity:1"
         id="path4199"
         inkscape:connector-curvature="0" />
    </g>
  </g>
</svg>
